<?xml version="1.0" encoding="utf-8" ?>
<svg xmlns="http://www.w3.org/2000/svg" xmlns:xlink="http://www.w3.org/1999/xlink" width="561" height="449">
	<path fill="#1A191A" transform="scale(0.438281 0.438477)" d="M0 0L1278.91 0C1279.45 0.929851 1279.8 1.5937 1279.88 2.6914C1281.04 17.1389 1280 35.5784 1280 50.3938L1280.01 149.601L1280.01 531.076L1280 613.097C1280 618.803 1280.99 637.74 1279.69 642.254C1279.52 642.844 1279.19 643.396 1278.93 643.947C1280.51 646.76 1280.75 666.665 1279.63 669.986C1279.46 670.485 1279.2 670.874 1278.94 671.337C1280.21 673.923 1280.59 677.391 1279.55 680.148C1279.29 680.857 1279.27 680.834 1278.93 681.375C1279.45 682.348 1279.8 683.076 1279.9 684.2C1280.48 691.049 1280.92 736.509 1279.65 740.87C1279.53 741.293 1279.33 741.658 1279.14 742.056C1279.71 743.443 1279.92 744.465 1279.96 745.968C1280.54 767.688 1280.58 1020.02 1279.54 1022.76C1279.26 1023.49 1279.26 1023.44 1278.91 1024L135.239 1024L0 1024L0 807.586L0 0Z"/>
	<path fill="#ADACAD" transform="scale(0.438281 0.438477)" d="M872.034 731.843L873.61 732.209C874.398 733.516 874.45 734.634 874.571 736.111C873.789 743.579 873.7 759.744 870.565 765.861C869.034 766.164 868.729 766.129 867.239 765.65C866.585 764.499 866.319 764.052 866.415 762.671C866.642 759.394 868.196 755.865 868.909 752.613C870.402 745.811 871.325 738.768 872.034 731.843Z"/>
	<path fill="#142877" transform="scale(0.438281 0.438477)" d="M336.71 615.253C343.443 615.904 350.279 615.758 357.042 616.281L356.863 636.368L336.326 636.092L336.71 615.253Z"/>
	<path fill="#606060" transform="scale(0.438281 0.438477)" d="M1123.53 593.58C1125.91 593.14 1128.13 592.927 1130.4 593.947C1137.21 597.007 1141.09 605.688 1143.3 612.339C1146.44 621.76 1149.65 646.37 1145.02 655.48C1145.11 655.248 1145.22 655.018 1145.3 654.783C1146.46 651.637 1145.07 645.854 1143.55 642.983C1145.28 638.483 1140.39 625.336 1138.54 621.027C1136 615.114 1131.71 608.042 1125.34 605.725C1120.75 604.055 1116.53 606.53 1112.53 608.573C1116.31 603.389 1118.64 597.995 1123.53 593.58Z"/>
	<path fill="#C2E220" transform="scale(0.438281 0.438477)" d="M100.088 559.428C103.789 559.461 107.574 559.325 111.263 559.558C119.664 564.988 128.131 565.162 137.559 567.359C146.025 569.333 154.762 573.428 161.91 578.348C164.611 580.206 167.587 582.02 169.358 584.825C148.108 572.611 123.797 573.019 100.046 572.236L100.088 559.428Z"/>
	<path fill="#DFDFDF" transform="scale(0.438281 0.438477)" d="M1074.67 554.57C1084.73 554.663 1196.12 569.669 1196.67 570.038C1197.29 571.391 1197.6 572.011 1197.4 573.542C1196.05 574.357 1193.92 574.02 1192.38 573.891C1170.48 572.056 1148.51 568.511 1126.71 565.673C1109.91 563.485 1092.81 562.116 1076.11 559.273Q1075.35 556.935 1074.67 554.57Z"/>
	<path fill="#DFDFDF" transform="scale(0.438281 0.438477)" d="M1075.55 538.932C1076.02 537.414 1076.24 535.466 1077.57 534.584C1084.86 534.708 1092.33 536.041 1099.57 536.948L1138.9 541.937L1178.5 546.933C1183.49 547.553 1188.86 547.687 1193.77 548.601C1195.4 548.905 1195.71 549.027 1196.99 550.118C1197.21 551.666 1197.13 552.33 1196.58 553.794C1195.91 554.135 1195.5 554.229 1194.74 554.154C1169.37 551.651 1144.02 547.624 1118.73 544.368C1104.55 542.542 1089.49 541.92 1075.55 538.932Z"/>
	<path fill="#DFDFDF" transform="scale(0.438281 0.438477)" d="M100.046 572.236C123.797 573.019 148.108 572.611 169.358 584.825L169.887 585.815L169.44 586.399C146.46 586.539 123.076 586.006 100.136 584.491L100.046 572.236Z"/>
	<path fill="#DFDFDF" transform="scale(0.438281 0.438477)" d="M206.616 632.899C216.428 633.71 226.421 633.763 236.264 634.105L295.248 635.911C304.738 636.19 318.758 635.402 327.558 637.308C328.57 639.244 328.285 641.614 328.294 643.752C288.423 641.64 248.46 641.21 208.588 639.087C207.667 637.077 207.164 635.031 206.616 632.899Z"/>
	<path fill="#DFDFDF" transform="scale(0.438281 0.438477)" d="M196.311 606.472L291.473 608.839C300.456 609.07 319.449 608.381 327.339 610.171C328.471 611.969 328.087 614.236 328.035 616.289L198.628 612.363L196.311 606.472Z"/>
	<path fill="#DFDFDF" transform="scale(0.438281 0.438477)" d="M201.483 618.977C232.339 621.334 264.869 621.102 295.95 622.066C304.64 622.336 319.797 621.613 327.435 623.199C328.533 625.267 328.154 627.933 328.124 630.225C314.344 630.147 300.488 629.395 286.711 628.969L203.847 626.158L201.483 618.977Z"/>
	<path fill="#DFDFDF" transform="scale(0.438281 0.438477)" d="M100.179 550.143C137.305 550.489 160.379 550.583 188.188 579.111Q191.448 582.455 194.39 586.082L179.675 586.17C166.986 570.672 150.244 562.065 130.316 560.164C124.002 559.561 117.6 559.454 111.263 559.558C107.574 559.325 103.789 559.461 100.088 559.428L100.179 550.143Z"/>
	<path fill="#DFDFDF" transform="scale(0.438281 0.438477)" d="M365.429 638.121L520.836 642.122C519.755 644.293 518.594 646.431 517.47 648.58C513.262 649.209 508.306 648.555 504 648.451L473.381 647.678Q437.466 646.875 401.561 645.655C388.686 645.247 375.692 645.213 362.856 644.187C364.458 642.495 364.848 641.097 365.282 638.891L365.429 638.121Z"/>
	<path fill="#DFDFDF" transform="scale(0.438281 0.438477)" d="M778.533 526.201C794.33 528.262 810.346 529.239 826.21 530.757Q875.343 535.63 924.539 539.801C941.816 541.293 961.674 541.977 978.605 544.538C979.499 544.673 980.067 545.083 980.65 545.735C980.423 547.005 980.215 548.013 979.671 549.198C979.445 549.272 979.222 549.353 978.995 549.42C975.13 550.568 801.151 534.325 781.312 532.719C780.322 532.639 779.787 532.389 778.946 531.899C777.877 530.115 778.338 528.179 778.533 526.201Z"/>
	<path fill="#DFDFDF" transform="scale(0.438281 0.438477)" d="M365.138 623.99Q446.656 626.783 528.208 628.305L524.952 634.039C524.675 634.49 524.006 635.147 523.65 635.553C508.385 635.665 492.959 634.653 477.68 634.269L365.07 631.42L365.138 623.99Z"/>
	<path fill="#DFDFDF" transform="scale(0.438281 0.438477)" d="M365.141 610.798L535 614.491L531.87 620.453L531.674 620.937C528.195 622.886 382.294 617.795 365.296 617.557L365.141 610.798Z"/>
	<path fill="#DFDFDF" transform="scale(0.438281 0.438477)" d="M631.238 560.417C635.883 560.114 640.614 560.234 645.271 560.18C645.143 563.631 644.629 567.058 644.197 570.481C618.109 571.104 586.124 569.901 562.689 582.994C557.158 586.083 552.464 590.629 547.414 594.415C541.979 594.591 536.532 594.43 531.097 594.349C560.516 563.351 591.464 561.998 631.238 560.417Z"/>
	<path fill="#DFDFDF" transform="scale(0.438281 0.438477)" d="M555.46 621.51C559.876 621.223 563.979 621.654 567.954 623.732Q568.405 623.971 568.844 624.232Q569.283 624.493 569.708 624.776Q570.133 625.059 570.544 625.363Q570.954 625.667 571.349 625.991Q571.744 626.315 572.122 626.658Q572.5 627.001 572.861 627.363Q573.221 627.725 573.563 628.104Q573.905 628.483 574.228 628.879Q574.551 629.275 574.853 629.687Q575.155 630.099 575.437 630.525Q575.718 630.951 575.978 631.391Q576.238 631.83 576.475 632.283Q576.712 632.735 576.927 633.198Q577.142 633.662 577.333 634.136Q577.524 634.609 577.691 635.092Q577.858 635.575 578.001 636.065Q578.138 636.544 578.251 637.029Q578.364 637.514 578.452 638.005Q578.541 638.495 578.604 638.989Q578.668 639.483 578.707 639.98Q578.746 640.477 578.76 640.975Q578.774 641.473 578.763 641.971Q578.751 642.469 578.715 642.966Q578.679 643.463 578.618 643.957Q578.557 644.452 578.471 644.943Q578.386 645.433 578.275 645.919Q578.165 646.405 578.031 646.885Q577.896 647.365 577.738 647.837Q577.579 648.309 577.397 648.773Q577.215 649.237 577.01 649.691Q576.805 650.145 576.578 650.589Q576.35 651.032 576.101 651.463C572.926 656.93 568.128 659.792 562.166 661.356C557.637 661.639 553.733 661.374 549.628 659.248Q549.184 659.014 548.752 658.758Q548.32 658.502 547.901 658.224Q547.483 657.947 547.079 657.649Q546.675 657.351 546.287 657.032Q545.899 656.714 545.527 656.377Q545.155 656.039 544.801 655.683Q544.446 655.328 544.11 654.954Q543.775 654.581 543.458 654.192Q543.141 653.802 542.845 653.397Q542.548 652.991 542.272 652.572Q541.996 652.152 541.742 651.719Q541.488 651.286 541.256 650.841Q541.024 650.396 540.814 649.939Q540.605 649.483 540.419 649.017Q540.233 648.55 540.07 648.075Q539.908 647.6 539.77 647.117C538.244 641.876 539.051 635.944 541.775 631.219C544.92 625.767 549.577 622.99 555.46 621.51Z"/>
	<path fill="#DFDFDF" transform="scale(0.438281 0.438477)" d="M779.898 485.013C779.84 482.883 779.478 480.775 780.728 478.94C781.241 478.753 781.725 478.448 782.267 478.379C784.682 478.073 789.642 479.475 792.196 479.794Q821.375 483.46 850.451 487.871C879.919 492.083 909.534 495.451 939.034 499.475C944.856 500.269 977.7 504.125 980.176 505.161C980.932 505.477 981.453 505.929 982.029 506.494C982.512 508.113 982.302 509.28 982.022 510.926C971.615 508.812 960.507 508.063 949.955 506.747L886.369 498.879C850.943 494.496 815.419 488.195 779.898 485.013Z"/>
	<path fill="#DFDFDF" transform="scale(0.438281 0.438477)" d="M1141.89 701.277C1147.75 700.601 1153.67 698.966 1159.45 697.731Q1177.33 693.944 1195.14 689.883Q1237.1 680.897 1278.94 671.337C1280.21 673.923 1280.59 677.391 1279.55 680.148C1279.29 680.857 1279.27 680.834 1278.93 681.375C1252.91 688.157 1226.5 693.729 1200.28 699.672C1180.23 704.215 1160.14 709.457 1139.86 712.828C1140.25 712.4 1140.37 712.325 1140.66 711.726C1141.87 709.304 1142.9 703.804 1141.89 701.277Z"/>
	<path fill="#DFDFDF" transform="scale(0.438281 0.438477)" d="M1094.94 629.216C1096.02 629.206 1097.09 629.281 1098.17 629.341L1098.7 630.144C1096.44 641.324 1094.16 652.529 1092.78 663.859C1091.82 671.732 1093.08 685.015 1090.51 691.764C1084.04 693.027 1077.27 693.604 1070.73 694.475L1069.56 694.582C1069.18 694.412 1068.65 694.421 1068.42 694.073C1066.11 690.58 1073.83 637.365 1070.71 630.149L1094.94 629.216Z"/>
	<path fill="#DFDFDF" transform="scale(0.438281 0.438477)" d="M1039.44 720.482L1041.27 720.792C1043.2 723.063 1044.07 725.449 1043.92 728.426C1039.45 730.349 1033.67 731.099 1028.87 732.147Q1008.56 736.555 988.108 740.257L884.002 760.652C882.988 760.886 882.41 760.828 881.4 760.594C880.522 757.891 881.701 754.081 882.074 751.235C906.182 747.49 930.265 742.035 954.233 737.373C982.601 731.856 1011.27 726.922 1039.44 720.482Z"/>
	<path fill="#DFDFDF" transform="scale(0.438281 0.438477)" d="M1088.29 699.231C1089.89 699.009 1091.12 698.927 1092.72 699.227C1094.41 703.287 1093.98 708.447 1095.19 712.799C1096.56 717.766 1103.88 734.131 1103.85 737.023C1090.44 737.055 1073.75 738.878 1060.96 734.868C1057.54 731.918 1053.65 729.663 1050.82 726.022C1046.34 720.234 1047.18 712.033 1042.94 706.692C1058.07 704.702 1073.23 701.769 1088.29 699.231Z"/>
	<path fill="#DFDFDF" transform="scale(0.438281 0.438477)" d="M326.122 760.903C341.012 761.67 355.943 762.036 370.843 762.75C378.862 785.33 382.653 787.231 400.224 801.467C382.667 801.082 361.489 803.395 346.185 793.544C334.292 785.887 329.113 774.287 326.122 760.903Z"/>
	<path fill="#C2E220" transform="scale(0.438281 0.438477)" d="M1075.55 538.932C1089.49 541.92 1104.55 542.542 1118.73 544.368C1144.02 547.624 1169.37 551.651 1194.74 554.154C1195.5 554.229 1195.91 554.135 1196.58 553.794C1197.85 556.839 1198.49 566.294 1197.02 569.381C1196.91 569.604 1196.78 569.819 1196.67 570.038C1196.12 569.669 1084.73 554.663 1074.67 554.57C1076.46 551.028 1076.32 542.817 1075.55 538.932Z"/>
	<path fill="#DFDFDF" transform="scale(0.438281 0.438477)" d="M1153.95 628.59C1168.12 628.112 1182.38 628.259 1196.56 628.395C1196.7 628.649 1196.86 628.898 1196.99 629.157C1198.54 632.14 1198.35 651.883 1197.41 655.302C1195.36 658.551 1178.08 668.591 1174.02 670.475C1172.13 673.242 1150.46 685.636 1146.33 687.409C1146.53 687.172 1146.74 686.941 1146.93 686.697C1152.25 679.868 1155.36 638.37 1153.95 628.59Z"/>
	<path fill="#DFDFDF" transform="scale(0.438281 0.438477)" d="M712.92 785.394C714.046 785.196 714.654 785.209 715.75 785.539C718.039 787.909 719.205 791.138 720.574 794.099C702.666 799.504 683.154 802.09 664.758 805.642L598.625 818.919C582.574 822.128 566.393 824.989 550.463 828.743L543.785 830.021L545.305 817.966C601.403 808.497 656.769 794.521 712.92 785.394Z"/>
	<path fill="#DFDFDF" transform="scale(0.438281 0.438477)" d="M996.534 347.116Q1022.34 356.382 1048.01 366.032C1055.61 368.888 1063.98 371.379 1071.21 375.048C1071.52 375.723 1071.76 376.224 1071.86 376.968C1072.54 381.577 1072.56 395.61 1069.88 399.062C1059.5 395.287 1048.81 392.223 1038.3 388.833C1024.1 384.256 1010 379.432 995.717 375.137C996.281 365.823 996.312 356.445 996.534 347.116Z"/>
	<path fill="#DFDFDF" transform="scale(0.438281 0.438477)" d="M908.207 313.372C916.49 315.826 924.737 319.443 932.846 322.474Q956.698 331.199 980.226 340.763Q979.949 355.179 979.281 369.582C955.423 361.852 930.947 354.734 907.504 345.891C907.324 335.088 908.026 324.185 908.207 313.372Z"/>
	<path fill="#DFDFDF" transform="scale(0.438281 0.438477)" d="M493.563 827.836L495.544 827.86C497.228 830.011 496.738 835.969 496.796 838.673L291.407 881.599C290.365 881.804 289.8 881.865 288.779 881.55C287.271 878.57 288.049 873.776 288.153 870.484C308.578 865.204 332.656 861.335 353.668 857.029Q423.703 842.851 493.563 827.836Z"/>
	<path fill="#DFDFDF" transform="scale(0.438281 0.438477)" d="M190.097 592.736C210.178 592.164 230.633 593.869 250.733 594.443L367.449 597.36L483.53 599.996C492.838 600.156 536.854 599.667 542.784 601.522C542.789 603.19 541.438 605.219 540.709 606.738L540.029 607.585C534.684 609.159 470.808 606.527 461.216 606.307L194.032 600.022L190.097 592.736Z"/>
	<path fill="#DFDFDF" transform="scale(0.438281 0.438477)" d="M239.19 879.088C240.245 878.941 240.184 879.032 241.086 879.441C241.92 883.017 241.456 887.087 241.344 890.757C169.577 906.185 97.4297 920.082 25.7737 935.982C24.8632 936.225 24.8951 936.084 24.0713 935.744C23.2222 932.475 23.6438 928.626 23.7155 925.251L239.19 879.088Z"/>
	<path fill="#ADACAD" transform="scale(0.438281 0.438477)" d="M70.156 334.571C73.7708 334.477 82.0113 333.377 84.6526 335.875C88.8084 343.895 87.914 386.735 87.3662 397.654C87.2011 400.944 86.9101 407.364 84.1838 409.554C79.5634 413.266 67.4285 412.29 61.7239 411.852C58.41 411.598 56.3882 410.63 54.2902 408.083C53.0851 405.632 52.5046 403.185 52.2281 400.484C51.3347 391.757 50.7312 347.03 52.405 340.06C52.8349 338.27 54.2433 336.813 55.8244 335.931C58.1408 334.638 60.4843 334.529 62.965 335.333C64.2701 339.878 62.4463 345.61 63.3121 350.406C63.6932 352.517 64.3615 353.004 65.9384 354.217C66.7219 354.275 67.2668 354.546 67.9058 353.982C71.282 350.997 70.1615 338.865 70.156 334.571Z"/>
	<path fill="#DFDFDF" transform="scale(0.438281 0.438477)" d="M378.152 763.167C411.057 763.552 444.065 765.238 476.956 766.391C473.122 773.807 468.522 780.287 462.701 786.284C456.903 791.665 450.222 795.863 442.708 798.399Q441.532 798.805 440.338 799.153Q439.144 799.5 437.934 799.788Q436.724 800.076 435.501 800.303Q434.278 800.53 433.045 800.697Q431.813 800.863 430.573 800.969Q429.334 801.074 428.091 801.117Q426.848 801.161 425.604 801.143Q424.36 801.125 423.119 801.045Q421.878 800.965 420.642 800.824Q419.406 800.683 418.179 800.481Q416.952 800.278 415.736 800.015Q414.521 799.752 413.319 799.43Q412.118 799.107 410.934 798.725Q409.751 798.343 408.587 797.902Q407.424 797.462 406.284 796.965Q405.144 796.467 404.03 795.914C390.325 788.939 382.738 777.427 378.152 763.167Z"/>
	<path fill="#DFDFDF" transform="scale(0.438281 0.438477)" d="M788.436 640.425C789.685 640.332 790.91 640.359 792.161 640.376C792.409 640.672 792.797 640.892 792.904 641.262C793.413 643.024 788.861 660.449 788.246 663.647C783.593 687.811 783.346 713.828 783.052 738.405C749.14 745.639 713.438 750.974 679.096 756.022C677.376 756.346 674.744 757.272 673.13 756.701C673.923 749.653 673.823 742.541 673.874 735.458C689.655 732.774 705.729 731.116 721.61 729.093C738.098 726.992 754.642 724.515 771.198 723.085C773.103 695.794 773.854 668.36 775.053 641.026L788.436 640.425Z"/>
	<path fill="#DFDFDF" transform="scale(0.438281 0.438477)" d="M799.448 271.587C813.053 276.061 826.379 281.73 839.754 286.858C856.968 293.458 874.363 299.733 891.425 306.706C891.396 317.755 890.74 328.876 890.241 339.914C859.11 330.834 828.218 320.033 797.442 309.781L799.448 271.587Z"/>
	<path fill="#142877" transform="scale(0.438281 0.438477)" d="M779.898 485.013C815.419 488.195 850.943 494.496 886.369 498.879L949.955 506.747C960.507 508.063 971.615 508.812 982.022 510.926C981.783 515.505 981.264 520.239 981.367 524.814C958.423 523.837 935.287 520.891 912.439 518.537L849.651 512.423C826.224 510.026 802.84 507.323 779.352 505.548Q779.332 495.273 779.898 485.013Z"/>
	<path fill="#DFDFDF" transform="scale(0.438281 0.438477)" d="M779.193 746.618L781.839 746.424C785.06 750.234 784.433 762.377 785.671 767.64C787.205 774.157 789.275 780.798 792.244 786.799C796.141 794.674 801.823 800.863 807.781 807.189C787.553 807.15 767.334 806.517 747.1 806.456C742.912 805.283 738.806 802.898 735.456 800.15C723.075 789.996 717.701 772.544 716.069 757.197C737.115 753.67 758.197 750.446 779.193 746.618Z"/>
	<path fill="#606060" transform="scale(0.438281 0.438477)" d="M811.279 609.568C815.551 596.445 826.613 579.266 839.233 572.775C844.399 570.117 850.215 569.342 855.802 571.22C865.307 574.416 871.72 583.147 875.868 591.85C890.177 621.875 886.977 668.54 881.764 700.416C879.802 712.417 876.514 724.142 874.571 736.111C874.45 734.634 874.398 733.516 873.61 732.209L872.034 731.843C871.872 719.861 872.974 707.882 872.57 695.866C871.739 671.142 865.374 629.135 847.18 611.366C842.103 606.408 835.641 603.171 828.436 603.296C821.797 603.41 816.787 606.206 811.279 609.568Z"/>
	<path fill="#DFDFDF" transform="scale(0.438281 0.438477)" d="M1119.15 612.958C1121.45 612.605 1123.05 612.648 1125.04 613.977C1131.58 618.356 1134.25 628.995 1135.81 636.179C1141.31 661.604 1141.83 707.111 1127.15 729.452C1124.78 733.06 1121.98 736.078 1117.61 737.001C1117.14 737.049 1116.95 737.099 1116.45 736.984C1113.92 736.411 1111.51 733.526 1110.06 731.454C1095.12 710.201 1098.79 670.683 1103.31 646.442C1105.52 634.627 1108.7 620.128 1119.15 612.958Z"/>
	<path fill="#1A191A" transform="scale(0.438281 0.438477)" d="M1119.06 634.214C1120.92 633.845 1122.82 633.517 1124.63 634.289C1128.25 635.834 1130.51 639.981 1131.87 643.494C1138.78 661.252 1138.48 690.648 1130.61 708.408C1129.05 711.922 1126.94 715.305 1123.22 716.741C1122.3 717.064 1122.55 717.045 1121.51 717.103C1119.71 717.204 1117.92 716.168 1116.65 714.981C1108.42 707.283 1106.82 688.215 1106.78 677.719C1106.72 663.424 1108.55 644.798 1119.06 634.214Z"/>
	<path fill="#DFDFDF" transform="scale(0.438281 0.438477)" d="M1121.04 642.337C1121.37 642.349 1121.7 642.322 1122.03 642.373C1123.67 642.634 1124.39 643.644 1125.19 645.007C1132.15 656.802 1131.01 680.567 1128.11 693.504C1127.11 697.97 1125.35 706.021 1121.21 708.618C1121.08 708.561 1120.94 708.523 1120.82 708.447C1118.93 707.263 1117.4 702.491 1116.69 700.426C1110.44 682.13 1112.54 659.614 1121.04 642.337Z"/>
	<path fill="#C2E220" transform="scale(0.438281 0.438477)" d="M779.352 505.548C802.84 507.323 826.224 510.026 849.651 512.423L912.439 518.537C935.287 520.891 958.423 523.837 981.367 524.814L981.279 529.637C980.997 534.101 979.518 541.538 980.65 545.735C980.067 545.083 979.499 544.673 978.605 544.538C961.674 541.977 941.816 541.293 924.539 539.801Q875.343 535.63 826.21 530.757C810.346 529.239 794.33 528.262 778.533 526.201C778.637 521.165 778.702 516.138 779.153 511.119L779.352 505.548Z"/>
	<path fill="#DFDFDF" transform="scale(0.438281 0.438477)" d="M779.352 505.548C802.84 507.323 826.224 510.026 849.651 512.423L912.439 518.537C935.287 520.891 958.423 523.837 981.367 524.814L981.279 529.637Q918.518 524.24 855.815 518.209C830.289 515.749 804.753 512.663 779.153 511.119L779.352 505.548Z"/>
	<path fill="#DFDFDF" transform="scale(0.438281 0.438477)" d="M1074.24 566.693C1080.86 565.673 1091.94 568.289 1098.95 569.149Q1130.07 572.893 1161.14 577.061C1172.89 578.567 1184.81 579.362 1196.51 581.123C1196.63 581.347 1196.76 581.567 1196.86 581.797C1198.51 585.299 1198.3 617.379 1196.8 621.27Q1176.29 621.316 1155.78 621.656C1154.87 621.705 1153.43 622.094 1152.89 621.051C1151.96 619.271 1151.56 616.081 1151.01 614.081C1148.56 605.145 1144.98 594.998 1137.39 589.075C1133.95 586.393 1129.85 585.329 1125.55 586.046C1107.29 589.088 1107.27 611.939 1100.21 622.034C1100.13 622.154 1100.04 622.269 1099.95 622.386Q1085.48 622.666 1071.03 623.362C1071.15 623.183 1071.29 623.013 1071.39 622.825C1073.02 619.889 1075.25 570.606 1074.24 566.693Z"/>
	<path fill="#DFDFDF" transform="scale(0.438281 0.438477)" d="M211.286 645.752C246.045 647.857 280.953 648.747 315.756 649.916Q415.017 653.542 514.328 655.298L508.229 668.031L505.937 672.774C467.536 672.583 429.05 670.341 390.676 668.995Q305.022 665.826 219.338 663.654C216.828 657.623 213.994 651.698 211.286 645.752Z"/>
	<path fill="#DFDFDF" transform="scale(0.438281 0.438477)" d="M1045.69 631.113C1051.53 630.741 1057.45 630.752 1063.31 630.601C1063.57 631.117 1063.71 631.351 1063.9 631.936C1064.9 634.947 1061.18 693.437 1059.63 696.516C1054.99 698.372 1048.06 698.789 1043.07 699.701Q1017.27 704.376 991.402 708.676L976.75 711.341Q979.634 672.389 981.892 633.395C1003.12 633.294 1024.46 631.893 1045.69 631.113Z"/>
	<path fill="#DFDFDF" transform="scale(0.438281 0.438477)" d="M767.077 187.655C790.132 189.842 814.32 192.232 836.918 197.304C858.353 202.114 877.118 212.57 896.932 221.654L977.879 258.594Q1029.55 281.454 1080.75 305.34C1094.95 311.842 1113.42 318.774 1126.5 326.224C1131.09 328.836 1134.15 332.437 1136.91 336.869C1138.91 340.085 1142.59 346.553 1141.7 350.403C1137.37 349.815 1077.01 321.283 1066.99 316.801L895.632 241.852Q853.022 223.767 810.142 206.331C795.82 200.358 780.976 194.531 767.077 187.655Z"/>
	<path fill="#DFDFDF" transform="scale(0.438281 0.438477)" d="M100.639 591.494C128.207 591.963 155.666 593.417 183.262 593.24C191.403 608.98 196.35 625.997 202.766 642.446C205.563 649.616 209.304 656.426 212.534 663.411C175.829 663.062 139.059 661.158 102.359 660.057C101.403 651.787 101.57 643.147 101.353 634.816Q100.586 613.162 100.639 591.494Z"/>
	<path fill="#1A191A" transform="scale(0.438281 0.438477)" d="M122.638 609.063C127.514 608.487 132.084 608.626 136.571 610.883C141.886 613.558 145.783 618.522 147.698 624.101Q147.903 624.696 148.077 625.301Q148.252 625.905 148.396 626.518Q148.541 627.13 148.654 627.75Q148.767 628.369 148.849 628.992Q148.932 629.616 148.982 630.244Q149.033 630.871 149.053 631.5Q149.072 632.129 149.06 632.758Q149.048 633.388 149.004 634.015Q148.96 634.643 148.885 635.268Q148.81 635.893 148.704 636.513Q148.597 637.133 148.46 637.748Q148.323 638.362 148.155 638.968Q147.987 639.575 147.789 640.172Q147.591 640.77 147.364 641.356Q147.136 641.943 146.879 642.518Q146.622 643.092 146.337 643.653C143.345 649.572 138.721 653.015 132.511 655.097C128.062 655.714 123.721 655.517 119.587 653.625C114.086 651.106 110.04 646.53 107.945 640.875Q107.726 640.287 107.536 639.689Q107.346 639.092 107.185 638.485Q107.025 637.879 106.894 637.266Q106.763 636.652 106.663 636.033Q106.563 635.414 106.493 634.79Q106.423 634.167 106.383 633.541Q106.344 632.915 106.335 632.288Q106.327 631.661 106.349 631.034Q106.371 630.407 106.423 629.782Q106.476 629.157 106.559 628.535Q106.643 627.913 106.756 627.296Q106.87 626.68 107.014 626.069Q107.157 625.458 107.331 624.856Q107.504 624.253 107.707 623.659Q107.91 623.066 108.142 622.483Q108.373 621.9 108.633 621.329C111.547 614.973 116.226 611.495 122.638 609.063Z"/>
	<path fill="#DFDFDF" transform="scale(0.438281 0.438477)" d="M125.228 615.19C127.405 615.183 129.481 615.383 131.543 616.136C135.673 617.643 138.98 620.929 140.733 624.933Q141.098 625.773 141.377 626.645Q141.656 627.517 141.847 628.412Q142.037 629.308 142.137 630.218Q142.238 631.128 142.246 632.044Q142.255 632.959 142.172 633.871Q142.09 634.783 141.916 635.682Q141.743 636.581 141.481 637.458Q141.219 638.335 140.87 639.182C138.787 644.18 135.425 646.774 130.615 648.781C127.993 648.841 125.571 648.845 123.115 647.781C119.091 646.038 116.145 642.651 114.619 638.578C112.886 633.955 112.963 628.571 115.023 624.064C117.18 619.341 120.474 616.83 125.228 615.19Z"/>
	<path fill="#1A191A" transform="scale(0.438281 0.438477)" d="M168.608 610.267C172.743 610.02 176.19 610.571 179.9 612.517C185.627 615.521 189.915 621.088 191.679 627.282C193.527 633.771 192.716 641.055 189.3 646.897C185.754 652.958 180.514 655.907 173.959 657.613C169.486 657.866 165.505 657.067 161.621 654.836C156.308 651.782 152.573 646.531 150.982 640.657C149.16 633.932 150.29 626.404 153.877 620.444C157.36 614.657 162.217 611.842 168.608 610.267Z"/>
	<path fill="#DFDFDF" transform="scale(0.438281 0.438477)" d="M169.638 617.109C171.562 617.127 173.283 617.258 175.093 617.968Q175.5 618.123 175.898 618.299Q176.297 618.476 176.685 618.673Q177.073 618.87 177.451 619.088Q177.828 619.305 178.193 619.542Q178.559 619.78 178.911 620.036Q179.263 620.292 179.601 620.567Q179.939 620.842 180.262 621.134Q180.585 621.426 180.892 621.735Q181.199 622.045 181.489 622.37Q181.779 622.694 182.052 623.034Q182.324 623.374 182.578 623.728Q182.832 624.082 183.067 624.449Q183.302 624.816 183.517 625.195Q183.732 625.573 183.927 625.963Q184.121 626.353 184.295 626.752Q184.469 627.152 184.621 627.56Q184.786 627.994 184.929 628.435Q185.072 628.877 185.193 629.325Q185.314 629.774 185.412 630.227Q185.51 630.681 185.584 631.139Q185.659 631.598 185.711 632.059Q185.763 632.52 185.791 632.984Q185.82 633.447 185.825 633.911Q185.83 634.375 185.812 634.839Q185.794 635.303 185.752 635.765Q185.71 636.228 185.646 636.687Q185.581 637.147 185.493 637.603Q185.405 638.059 185.294 638.51Q185.183 638.96 185.05 639.405Q184.917 639.85 184.761 640.287Q184.606 640.724 184.428 641.154Q184.251 641.583 184.052 642.002C181.718 646.857 178.218 649.248 173.319 650.961C171.062 650.803 168.963 650.436 166.877 649.517Q166.129 649.18 165.419 648.77Q164.708 648.359 164.043 647.88Q163.377 647.401 162.763 646.857Q162.149 646.313 161.592 645.71Q161.036 645.107 160.543 644.452Q160.049 643.796 159.624 643.095Q159.199 642.393 158.847 641.652Q158.494 640.911 158.218 640.139Q157.913 639.286 157.693 638.407Q157.473 637.528 157.34 636.632Q157.207 635.736 157.162 634.831Q157.117 633.926 157.16 633.021Q157.204 632.116 157.335 631.219Q157.467 630.323 157.685 629.444Q157.904 628.565 158.207 627.711Q158.51 626.857 158.895 626.037C161.24 621.085 164.724 618.893 169.638 617.109Z"/>
	<path fill="#DFDFDF" transform="scale(0.438281 0.438477)" d="M965.518 634.263L974.56 633.806C974.425 643.022 973.496 652.315 972.947 661.52L969.872 712.951C943.743 716.749 917.584 721.838 891.597 726.532L883.959 727.931C890.752 698.815 894.738 667.257 892.717 637.312L965.518 634.263Z"/>
	<path fill="#DFDFDF" transform="scale(0.438281 0.438477)" d="M995.533 382.318Q1019.93 390.334 1044.43 398.045C1050.96 400.117 1064.92 403.289 1070.31 406.755C1070.6 407.347 1070.6 407.298 1070.84 408.009C1071.76 410.75 1068.78 497.502 1068.18 505.188C1068.06 506.804 1067.87 507.771 1067.09 509.197C1063.78 510.196 1000.56 500.662 992.396 499.893Q993.162 441.084 995.533 382.318Z"/>
	<path fill="#DFDFDF" transform="scale(0.438281 0.438477)" d="M907.457 353.653Q943.304 365.423 979.325 376.648C977.43 416.687 977.281 456.849 975.09 496.858C967.497 497.066 958.259 494.806 950.651 493.733Q927.15 490.392 903.596 487.442C904.071 442.895 906.068 398.189 907.457 353.653Z"/>
	<path fill="#DFDFDF" transform="scale(0.438281 0.438477)" d="M989.452 506.339L1036.91 512.747C1047.6 514.164 1058.54 515.189 1069.13 517.196C1069.58 518.172 1069.94 519.065 1069.97 520.153C1070.07 524.869 1069.49 529.751 1069.26 534.476L1067.8 565.64C1066.93 583.81 1066.84 605.252 1064.51 623.039C1062.79 624.159 1060.63 623.793 1058.59 623.834L982.394 626.889C985.533 586.761 986.449 546.454 989.452 506.339Z"/>
	<path fill="#DFDFDF" transform="scale(0.438281 0.438477)" d="M778.092 539.232C804.872 540.494 831.819 543.926 858.518 546.39L979.388 556.91L975.512 626.963C952.157 627.605 928.824 628.986 905.47 629.741C901.221 630.071 896.916 630.085 892.655 630.222C890.764 615.195 888.19 599.998 881.054 586.433C876.068 576.956 868.371 567.401 857.719 564.234C850.144 561.981 842.276 563.12 835.378 566.857C813.273 578.831 801.955 610.587 795.19 633.379L775.143 634.527L778.092 539.232Z"/>
	<path fill="#DFDFDF" transform="scale(0.438281 0.438477)" d="M825.977 610.263C829.04 610.181 831.61 610.351 834.486 611.597C844.609 615.985 850.295 627.351 854.079 637.059C869.885 677.611 869.7 743.471 852.001 783.329C847.283 793.953 841.063 803.354 829.887 807.707C825.332 808.363 821.206 807.303 817.243 805.084C805.062 798.265 798.038 782.43 794.496 769.632C785.44 736.906 790.382 655.593 807.156 626.187C811.512 618.552 817.33 612.56 825.977 610.263Z"/>
	<path fill="#1A191A" transform="scale(0.438281 0.438477)" d="M829.957 650.196C832.204 650.037 834.492 649.96 836.655 650.698C843.035 652.877 847.282 659.27 849.888 665.137C860.831 689.779 860.462 731.471 850.559 756.38C847.381 764.375 843.289 771.657 835.088 775.189C832.816 775.67 830.887 775.891 828.633 775.172C822.585 773.245 818.449 767.016 815.873 761.552C804.499 737.42 804.651 695.323 813.897 670.45C816.942 662.258 821.765 653.998 829.957 650.196Z"/>
	<path fill="#DFDFDF" transform="scale(0.438281 0.438477)" d="M830.337 657.64C831.316 657.495 832.363 657.446 833.35 657.536C836.105 657.789 838.629 660.133 840.267 662.198C851.164 675.934 851.91 708.326 850.117 725.545C848.69 739.251 845.581 759.022 834.393 768.096C833.474 768.257 832.499 768.439 831.563 768.402C829.193 768.307 826.851 766.242 825.404 764.537C815.353 752.695 813.32 722.288 814.192 706.894C815.106 690.771 817.776 668.848 830.337 657.64Z"/>
	<path fill="#DFDFDF" transform="scale(0.438281 0.438477)" d="M797.297 317.083C805.515 319.548 813.653 322.62 821.813 325.302Q855.829 336.65 890.062 347.323C889.971 363.366 888.83 379.502 888.308 395.548L886.058 463.665C885.908 467.87 886.38 479.915 885.202 483.386C885.03 483.895 884.618 484.288 884.326 484.738C874.216 482.873 863.802 481.967 853.613 480.54C832.621 477.6 811.672 474.552 790.589 472.312C791.973 457.729 792.143 442.872 792.783 428.23C794.401 391.202 795.176 354.08 797.297 317.083Z"/>
	<path fill="#DFDFDF" transform="scale(0.438281 0.438477)" d="M102.555 666.605L466.521 678.407L579.122 681.395C608.959 681.98 638.958 682.874 668.706 680.047C668.739 692.725 667.84 705.465 667.576 718.153C667.353 728.885 667.939 740.281 666.688 750.93C666.403 753.358 665.618 755.39 664.591 757.582C662.153 760.289 659.29 762.699 655.544 763.105C647.012 764.03 638.049 763.347 629.474 763.133Q610.749 762.616 592.018 762.354Q512.737 761.225 433.505 758.195L216.956 749.936C184.657 748.578 151.985 748.346 119.779 745.708C116.647 745.451 110.925 745.273 108.521 743.102C106.471 741.25 104.809 738.89 104.195 736.163C102.552 728.871 103.713 719.097 103.59 711.534C103.348 696.556 102.727 681.585 102.555 666.605Z"/>
	<path fill="#1A191A" transform="scale(0.438281 0.438477)" d="M130.346 692.685Q154.457 693.721 178.577 694.511C178.394 704.082 178.684 713.652 178.424 723.228C162.408 722.959 146.407 721.638 130.378 721.364C130.414 711.843 129.629 702.178 130.346 692.685Z"/>
	<path fill="#19FF0D" transform="scale(0.438281 0.438477)" d="M136.941 699.685L171.447 700.84L171.273 716.01Q154.112 715.49 136.967 714.585C136.908 709.62 136.946 704.651 136.941 699.685Z"/>
	<path fill="#1A191A" transform="scale(0.438281 0.438477)" d="M535.211 705.694C541.555 705.472 579.837 705.657 582.822 707.566C584.366 712.639 584.664 731.399 582.849 736.412C569.189 736.629 555.387 736.15 541.727 735.751C539.642 735.69 536.55 735.846 535.08 734.291C533.806 728.492 533.408 710.884 535.211 705.694Z"/>
	<path fill="#19FF0D" transform="scale(0.438281 0.438477)" d="M541.12 712.559C553.221 712.688 565.348 713.245 577.447 713.595L577.453 730.068Q559.323 729.629 541.19 729.396L541.12 712.559Z"/>
	<path fill="#1A191A" transform="scale(0.438281 0.438477)" d="M264.544 688.9L421.836 694.52L421.77 740.512C369.426 738.111 316.898 735.721 264.522 734.277C264.708 719.149 264.384 704.027 264.544 688.9Z"/>
	<path fill="#DFDFDF" transform="scale(0.438281 0.438477)" d="M270.654 695.5C318.877 696.304 367.098 699.521 415.313 700.794L415.505 733.826L271.064 728.084L270.654 695.5Z"/>
	<path fill="#606060" transform="scale(0.438281 0.438477)" d="M692.561 221.374C727.418 234.019 762.608 245.615 797.295 258.762L1011.89 342.472C1028.12 348.841 1044.17 355.667 1060.44 361.917C1087.71 372.392 1115.38 381.784 1142.62 392.39C1152.38 396.188 1161.87 400.667 1171.54 404.675C1178.16 407.416 1189.73 410.57 1195.21 414.39C1195.32 414.562 1195.44 414.724 1195.52 414.907C1196 415.954 1197.39 526.09 1196.81 538.816C1196.76 540.038 1196.45 540.893 1195.97 541.999C1187.67 539.779 1169.9 538.715 1160.02 537.483L1075.91 527.013C1076.23 526.515 1076.4 526.3 1076.62 525.784C1077.71 523.264 1078.62 516.005 1077.79 513.519C1077.02 513.074 1075.07 512.09 1074.76 511.277C1073.63 508.335 1075.1 491.888 1075.24 487.958C1075.73 474.293 1079.49 374.331 1077.89 370.226C1074.64 367.654 1061.01 363.997 1056.4 362.304C1034.57 354.292 1012.89 345.96 990.943 338.254C989.699 351.955 989.428 365.842 988.948 379.587L986.989 452.335L986.304 477.641C986.198 483.323 986.769 489.993 985.618 495.562C985.258 497.303 985.175 498.081 983.729 499.08L982.565 498.452C981.742 496.791 981.547 495.295 981.508 493.454C981.288 483.111 982.455 472.306 982.796 461.9L985.095 384.156C985.627 368.347 986.982 352.26 986.553 336.456C969.728 328.953 952.333 322.595 935.118 316.054C924.381 311.974 913.773 307.402 902.88 303.759C900.358 320.888 901.102 339.373 900.679 356.67L898.319 445.032L897.365 471.768C897.21 476.311 897.54 481.567 896.629 486C895.052 486.721 894.247 486.614 892.568 486.272C891.164 481.839 894.88 399.438 895.266 386.814C896.892 358.628 897.244 330.211 898.015 301.981C863.418 287.859 827.649 276.23 793.567 260.892C791.614 274.936 791.794 289.774 791.066 303.944Q788.302 357.568 786.435 411.23C785.778 428.801 786.145 449.133 784.227 466.37C784.008 468.335 783.817 470.165 782.461 471.645L781.3 471.017C780.379 469.096 780.088 467.382 780.04 465.268C779.903 459.225 780.489 453.05 780.697 447.002L781.72 411.108C783.042 359.188 785.344 307.131 785.737 255.21C774.997 252.975 764.586 249.689 754.02 246.773Q735.297 241.709 716.462 237.08C710.831 235.675 703.163 232.73 697.444 233.002L696.941 233.816C696.972 234.704 696.989 235.445 697.433 236.24C698.649 238.42 701.043 239.478 703.26 240.359C714.079 244.66 726.275 246.747 737.568 249.524Q758.53 254.901 779.394 260.651L764.95 716.848C734.66 719.726 704.569 725.339 674.216 727.866L684.65 426.985C687.216 358.464 688.989 289.849 692.561 221.374Z"/>
	<path fill="#1A191A" transform="scale(0.438281 0.438477)" d="M1144.96 398.529C1145.72 398.33 1146.63 398.148 1147.42 398.209C1151.71 398.542 1190.55 415.107 1192.77 417.871C1192.57 431.917 1190.82 530.531 1188.93 534.037L1186.39 534.288C1181.22 532.153 1146.01 528.171 1138.46 527.408C1139.35 526.139 1139.55 524.855 1139.68 523.338C1140.82 510.261 1140.71 496.846 1141.24 483.709L1144.96 398.529Z"/>
	<path fill="#DFDFDF" transform="scale(0.438281 0.438477)" d="M1150.77 406.035C1154.4 406.501 1181.37 417.894 1184.69 420.103C1186.47 423.314 1185.72 429.375 1185.66 433.021C1185.61 435.617 1185.97 438.659 1184.06 440.508C1178.78 438.015 1172.68 436.384 1167.17 434.41C1161.1 432.238 1155.15 429.683 1149.04 427.655C1151.92 423.17 1150.71 411.393 1150.77 406.035Z"/>
	<path fill="#DFDFDF" transform="scale(0.438281 0.438477)" d="M1149.48 436.042C1152.74 436.129 1181.57 446.035 1184.28 447.791C1184.74 448.609 1185.02 449.248 1185.11 450.202C1186.15 461.619 1184.73 475.22 1184.42 486.833C1184.15 497.068 1184.85 516.098 1182.91 525.455C1182.75 526.227 1182.09 526.388 1181.46 526.81C1174.33 524.004 1154.02 522.084 1145.61 521.137C1145.66 521.015 1145.71 520.891 1145.76 520.77C1148.47 514.415 1149.09 449.049 1149.48 436.042Z"/>
	<path fill="#1A191A" transform="scale(0.438281 0.438477)" d="M740.408 255.956C751.175 258.419 763.512 262.144 773.806 266.104L768.387 417.216Q767.79 433.682 767.368 450.154C767.225 456.177 768.095 464.558 766.458 470.291L765.474 470.487C753.982 469.612 742.524 468.148 731.073 466.843L737.547 324.268C738.588 301.508 738.996 278.694 740.408 255.956Z"/>
	<path fill="#DFDFDF" transform="scale(0.438281 0.438477)" d="M746.678 264.506C753.485 266.293 760.275 269.124 766.932 271.451Q764.08 336.474 762.007 401.526C761.264 422.097 761.108 442.83 759.636 463.354C752.656 462.176 745.44 461.738 738.392 461.115C741.7 395.624 742.609 329.952 746.678 264.506Z"/>
	<path fill="#1A191A" transform="scale(0.438281 0.438477)" d="M1083.55 374.145C1087.55 373.974 1134.79 392.207 1139.09 395.28C1139.53 396.163 1139.8 396.922 1139.85 397.908C1140.15 403.269 1139.45 409.103 1139.24 414.503L1137.89 450.049C1137.07 473.795 1137.53 497.813 1135.83 521.502C1135.69 523.397 1135.72 524.705 1134.44 526.205C1128.4 527.162 1086.86 519.663 1078.41 517.837C1080.28 514.639 1083.24 389.215 1083.55 374.145Z"/>
	<path fill="#DFDFDF" transform="scale(0.438281 0.438477)" d="M1088.99 383.524C1094.11 383.613 1126.57 396.522 1132.93 399.738C1133 399.854 1133.07 399.963 1133.12 400.086C1134.27 402.941 1132.95 420.109 1131.71 422.903C1117.45 419.598 1102.96 410.73 1087.95 407.48C1090.23 402.451 1090.28 389.005 1088.99 383.524Z"/>
	<path fill="#DFDFDF" transform="scale(0.438281 0.438477)" d="M1087.58 415.402C1093.13 414.743 1124.99 426.593 1131.13 430.092C1131.49 430.977 1131.77 431.663 1131.88 432.62C1132.94 441.91 1131.32 460.206 1131 470.672L1130.05 500.621C1129.89 505.764 1130.09 511.312 1129.36 516.404C1129.2 517.524 1128.77 518.088 1128.07 518.938C1113.63 517.001 1099.42 513.483 1084.93 511.763C1085.2 511.331 1085.31 511.195 1085.49 510.649C1086.77 506.693 1089.15 424.352 1088.33 417.687C1088.22 416.797 1087.94 416.209 1087.58 415.402Z"/>
	<path fill="#1A191A" transform="scale(0.438281 0.438477)" d="M699.813 244.006C712.038 247.103 724.111 250.855 736.207 254.42C733.791 289.259 732.967 324.314 731.508 359.207Q728.737 412.86 726.915 466.553C714.955 465.221 701.531 465.678 689.934 462.836C693.214 407.194 693.739 351.333 696.856 295.659Q697.732 279.483 698.446 263.3C698.751 256.951 698.713 250.26 699.813 244.006Z"/>
	<path fill="#DFDFDF" transform="scale(0.438281 0.438477)" d="M705.475 252.872Q717.173 256.105 728.913 259.184C726.76 325.725 723.477 392.419 720.223 458.913C712.446 458.479 704.632 457.531 696.871 456.825C697.784 448.782 697.836 440.508 698.197 432.416L699.983 391.518L705.475 252.872Z"/>
	<path fill="#1A191A" transform="scale(0.438281 0.438477)" d="M689.721 471.957Q728.251 475.407 766.824 478.339C762.572 555.719 761.47 633.26 757.214 710.63C754.986 711.032 752.725 711.258 750.478 711.529L706.627 716.909C698.362 717.921 689.725 719.538 681.408 719.455C679.474 715.96 688.657 497.23 689.721 471.957Z"/>
	<path fill="#DFDFDF" transform="scale(0.438281 0.438477)" d="M696.134 479.518C716.93 482.059 738.077 483.233 758.983 484.6C756.979 557.988 754.158 631.529 750.615 704.857L744.353 705.595L687.554 712.549C688.201 685.07 689.76 657.544 690.762 630.067L696.134 479.518Z"/>
	<path fill="#DFDFDF" transform="scale(0.438281 0.438477)" d="M135.966 190.651C150.19 183.621 181.045 178.074 197.365 174.747C324.83 148.762 454.949 144.277 584.667 146.826C602.39 147.174 646.985 146.949 661.287 151.704C679.593 157.79 697.417 166.211 715.198 173.671L823.452 219.355Q968.669 279.82 1111.99 344.655C1132.6 353.96 1153.54 362.381 1174.19 371.561C1178.17 373.328 1182.46 374.436 1186.37 376.317C1189.15 377.651 1192.04 379.763 1193.33 382.651C1194.64 385.587 1195.08 389.533 1194.23 392.626C1185.69 387.121 1173.83 383.897 1164.31 380.096L1110.55 358.094Q952.215 291.188 792.443 227.798L708.639 194.516C695.431 189.307 681.909 183.022 668.373 178.863C666.37 178.248 664.575 177.956 662.479 178.23L661.352 179.123C661.377 181.046 661.747 182.119 663.167 183.524C664.353 184.696 665.71 185.544 667.227 186.213C672.298 188.448 677.862 189.959 683.054 191.978L725.606 208.754Q915.33 283.441 1103.35 362.322L1166.55 388.561C1175.31 392.151 1186.97 395.281 1194.86 400.142C1195.63 401.793 1195.92 402.97 1196.04 404.784L1195.33 406.066C1194.36 406.321 1194.35 406.459 1193.34 406.112C1175.57 399.968 1158.38 391.462 1140.81 384.662C1113.51 374.1 1085.67 364.878 1058.41 354.273C1042.66 348.143 1027.14 341.388 1011.43 335.136L880.585 283.998C837.094 266.972 793.846 249.638 749.81 234.041C736.975 229.495 724.038 225.145 711.272 220.418C704.913 218.063 698.113 214.512 691.446 213.277C689.656 212.946 687.852 212.648 686.804 214.447C686.091 215.669 685.931 217.041 685.826 218.427C684.47 236.342 684.341 254.539 683.564 272.508L677.999 419.662L671.945 588.066C671.015 616.345 669.136 644.879 669.295 673.153C641.904 675.741 614.732 674.973 587.285 674.46C562.617 674 537.849 673.732 513.2 672.709C516.759 665.357 529.012 638.148 533.429 633.495C532.867 635.753 532.498 638.101 532.452 640.431C532.305 647.775 534.905 654.886 540.098 660.141Q540.579 660.618 541.083 661.071Q541.587 661.523 542.113 661.95Q542.639 662.376 543.185 662.776Q543.732 663.176 544.298 663.548Q544.864 663.92 545.448 664.263Q546.032 664.606 546.632 664.92Q547.233 665.233 547.848 665.517Q548.463 665.8 549.092 666.052Q549.721 666.303 550.361 666.524Q551.002 666.744 551.652 666.932Q552.303 667.119 552.962 667.274Q553.622 667.429 554.288 667.551Q554.954 667.673 555.625 667.761Q556.297 667.85 556.972 667.904Q557.647 667.959 558.324 667.979Q559.001 668 559.678 667.987Q560.308 667.983 560.938 667.949Q561.567 667.914 562.194 667.849Q562.821 667.784 563.444 667.688Q564.068 667.592 564.685 667.465Q565.303 667.339 565.913 667.182Q566.524 667.026 567.126 666.839Q567.729 666.653 568.321 666.437Q568.913 666.221 569.494 665.977Q570.075 665.732 570.644 665.459Q571.212 665.187 571.767 664.886Q572.321 664.586 572.86 664.259Q573.399 663.932 573.921 663.579Q574.443 663.225 574.948 662.847Q575.452 662.469 575.937 662.066Q576.422 661.663 576.887 661.237Q577.352 660.811 577.795 660.363C582.819 655.181 585.222 647.903 585.021 640.747C584.82 633.617 581.999 626.967 576.806 622.062C571.657 617.198 564.997 614.442 557.879 614.668C549.88 614.921 543.867 618.331 538.468 624.016C542.255 611.367 556.019 594.605 567.441 588.385C592.075 574.969 622.841 579.699 649.649 577.371C651.01 571.28 653.219 561.247 651.363 555.253C646.752 551.427 606.869 554.609 599.432 555.301C564.997 558.505 546.206 570.299 521.722 593.657Q462.528 593.067 403.354 591.369L203.389 586.382C182.144 562.636 164.858 545.423 130.722 543.545C120.737 542.995 110.718 543.335 100.735 542.91L101.896 493.907C109.343 500.015 116.181 504.435 125.928 505.576C136.976 506.87 148.334 506.44 159.449 506.495L208.56 506.903L384.062 508.998L551.587 510.71L606.243 511.439C614.129 511.493 622.494 512.255 630.316 511.438C640.911 510.331 651.045 505.293 657.746 496.916C661.901 491.721 663.84 486.075 664.829 479.556C667.248 463.614 667.084 446.711 667.862 430.596L672.138 333.963L674.498 284.106C675.04 274.205 676.75 263.211 675.534 253.375C674.686 246.52 672.294 241.004 666.747 236.683C660.864 232.101 653.257 229.944 645.883 229.677C638.898 229.424 631.633 230.298 624.655 230.74Q607.066 231.845 589.464 232.729L462.812 239.376L124.894 257.238C126.181 240.889 126.969 203.786 135.966 190.651Z"/>
	<path fill="#1A191A" transform="scale(0.438281 0.438477)" d="M614.045 615.923C620.358 615.399 625.756 615.506 631.521 618.444C638.046 621.771 643.034 627.866 645.245 634.828C647.366 641.507 646.869 649.134 643.611 655.369C639.92 662.432 633.553 666.653 626.105 668.97Q625.02 669.193 623.92 669.328Q622.821 669.462 621.714 669.508Q620.607 669.553 619.5 669.51Q618.393 669.466 617.293 669.333Q616.194 669.2 615.108 668.978Q614.023 668.757 612.958 668.449Q611.894 668.141 610.859 667.748Q609.823 667.355 608.822 666.88Q608.225 666.593 607.643 666.277Q607.06 665.962 606.494 665.618Q605.928 665.274 605.379 664.902Q604.831 664.531 604.301 664.133Q603.771 663.735 603.262 663.312Q602.752 662.888 602.264 662.44Q601.776 661.992 601.31 661.521Q600.845 661.049 600.403 660.556Q599.961 660.062 599.544 659.547Q599.127 659.032 598.736 658.497Q598.345 657.963 597.98 657.41Q597.616 656.856 597.279 656.286Q596.942 655.715 596.633 655.129Q596.325 654.543 596.045 653.942Q595.766 653.341 595.517 652.727Q595.267 652.113 595.048 651.488C592.625 644.496 593.146 636.304 596.483 629.694C600.192 622.346 606.396 618.341 614.045 615.923Z"/>
	<path fill="#DFDFDF" transform="scale(0.438281 0.438477)" d="M615.355 622.75C619.428 622.467 623.042 622.235 626.912 623.839Q627.402 624.046 627.88 624.278Q628.359 624.51 628.825 624.766Q629.291 625.023 629.743 625.303Q630.196 625.582 630.633 625.885Q631.07 626.188 631.492 626.512Q631.913 626.837 632.317 627.183Q632.721 627.528 633.107 627.894Q633.493 628.26 633.86 628.646Q634.226 629.031 634.573 629.435Q634.919 629.838 635.244 630.259Q635.57 630.68 635.873 631.117Q636.176 631.554 636.457 632.006Q636.737 632.458 636.995 632.923Q637.252 633.389 637.484 633.867Q637.717 634.345 637.925 634.835Q638.133 635.324 638.316 635.824Q638.497 636.316 638.652 636.816Q638.808 637.317 638.938 637.824Q639.067 638.332 639.171 638.846Q639.274 639.359 639.351 639.878Q639.428 640.396 639.479 640.918Q639.529 641.439 639.552 641.963Q639.576 642.486 639.573 643.01Q639.569 643.534 639.539 644.058Q639.509 644.581 639.452 645.102Q639.395 645.623 639.311 646.14Q639.228 646.657 639.118 647.17Q639.008 647.682 638.872 648.188Q638.735 648.694 638.574 649.193Q638.412 649.691 638.225 650.18Q638.037 650.67 637.825 651.149Q637.613 651.628 637.377 652.096C634.544 657.757 629.954 660.708 624.098 662.612C619.863 662.906 616.095 662.852 612.127 661.056Q611.66 660.843 611.205 660.606Q610.75 660.37 610.307 660.111Q609.865 659.852 609.435 659.571Q609.006 659.29 608.592 658.988Q608.177 658.686 607.778 658.364Q607.379 658.041 606.997 657.699Q606.615 657.357 606.25 656.996Q605.886 656.635 605.54 656.256Q605.194 655.878 604.868 655.482Q604.541 655.086 604.235 654.675Q603.929 654.263 603.644 653.837Q603.358 653.41 603.095 652.97Q602.832 652.53 602.591 652.077Q602.35 651.624 602.132 651.16Q601.914 650.695 601.719 650.221Q601.525 649.746 601.355 649.262Q601.177 648.75 601.026 648.23Q600.874 647.71 600.75 647.183Q600.626 646.655 600.529 646.122Q600.432 645.589 600.362 645.052Q600.293 644.515 600.251 643.975Q600.209 643.435 600.196 642.893Q600.182 642.351 600.196 641.81Q600.21 641.268 600.252 640.728Q600.294 640.188 600.364 639.651Q600.434 639.114 600.532 638.581Q600.629 638.048 600.754 637.52Q600.879 636.993 601.03 636.473Q601.182 635.953 601.36 635.442Q601.539 634.93 601.743 634.429Q601.948 633.927 602.178 633.436Q602.408 632.946 602.663 632.468C605.488 627.228 609.739 624.385 615.355 622.75Z"/>
	<path fill="#1A191A" transform="scale(0.438281 0.438477)" d="M578.778 154.676C585.058 154.278 591.322 153.926 597.574 154.9C602.794 155.713 611.656 157.901 614.567 162.771C616.416 165.864 612.247 213.463 611.046 220.941C596.336 223.314 580.235 223.001 565.315 223.795L480.447 228.604L177.346 246.557C165.948 247.218 154.535 248.035 143.118 248.255Q141.71 243.332 141.088 238.249C139.704 226.707 138.721 206.648 146.447 197.368C154.211 188.043 179.582 183.523 191.521 181.635C210.234 178.675 229.42 178.066 248.313 176.76L335.945 170.813L578.778 154.676Z"/>
	<path fill="#606060" transform="scale(0.438281 0.438477)" d="M580.112 161.547C590.789 160.77 598.622 161.089 608.344 166.096C608.053 182.341 606.004 198.845 604.935 215.094Q579.208 216.054 553.512 217.627C556.137 201.419 557.12 184.955 559.659 168.724C517.051 169.889 474.295 173.988 431.767 176.902Q310.998 185.209 190.139 192.104C189.812 194.376 189.563 196.665 189.279 198.943C187.442 212.339 185.881 225.91 184.832 239.391C172.699 239.736 160.525 240.743 148.394 241.326C147.47 231.94 145.584 208.778 151.956 201.641C158.993 193.759 184.291 189.6 194.835 188.043C213.36 185.308 232.274 184.551 250.953 183.348L323.994 178.493L580.112 161.547Z"/>
	<path fill="#DFDFDF" transform="scale(0.438281 0.438477)" d="M545.633 176.035C547.565 175.805 549.321 175.69 551.261 175.865C551.925 176.885 547.464 213.041 547.218 217.768C515.289 220.616 482.886 221.21 450.862 223.069Q323.458 230.052 196.131 238.337C194.396 238.493 193.518 238.844 191.982 237.962C191.866 232.537 193.017 226.835 193.696 221.439Q195.094 210.174 196.162 198.872Q263.118 194.182 330.129 190.363L461.027 181.6Q503.344 179.037 545.633 176.035Z"/>
	<path fill="#606060" transform="scale(0.438281 0.438477)" d="M630.717 237.291C635.134 236.913 639.638 236.663 644.07 236.613C651.423 236.53 658.651 238.229 664.021 243.516C668.393 247.82 669.223 254.299 669.188 260.195C669.125 270.949 668.111 281.792 667.658 292.551L662.791 391.907L660.352 448.004C659.849 458.573 659.976 469.943 657.884 480.3C656.655 486.39 653.866 491.151 649.43 495.492Q648.428 496.484 647.344 497.385Q646.26 498.287 645.102 499.092Q643.945 499.897 642.723 500.599Q641.5 501.302 640.222 501.896Q638.944 502.491 637.619 502.973Q636.295 503.456 634.933 503.823Q633.572 504.189 632.185 504.438Q630.797 504.686 629.393 504.814C616.196 506.121 601.886 504.961 588.616 504.807L496.243 503.313L145.694 499.744C138.362 499.722 130.759 500.066 123.558 498.471C113.619 496.27 107.897 491.028 102.501 482.682C106.364 409.634 116.002 336.686 124.597 264.077L630.717 237.291Z"/>
	<path fill="#1A191A" transform="scale(0.438281 0.438477)" d="M313.569 260.986C314.377 260.937 315.348 260.824 316.14 260.994C317.012 261.18 317.842 261.766 318.263 262.531C318.883 263.659 318.819 265.051 318.628 266.285C318.09 269.761 316.776 273.241 315.98 276.683C314.391 283.55 313.146 290.536 311.848 297.463L292.777 398.811Q287.184 427.642 281.992 456.548C279.661 469.109 277.607 481.984 274.25 494.312C267.141 494.49 259.839 493.93 252.712 493.793Q231.147 493.366 209.577 493.33Q186.646 493.292 163.718 492.925C154.346 492.851 144.655 493.264 135.328 492.388C129.651 491.855 125 490.669 119.827 488.306C118.372 487.482 116.818 486.514 115.556 485.405C110.867 481.285 108.517 474.64 108.116 468.524C107.628 461.084 109.129 452.987 110.02 445.587Q111.812 430.937 113.387 416.263L123.364 329.787C125.118 315.342 126.188 300.058 129.201 285.829C129.933 282.374 131.341 279.471 133.725 276.82C137.328 272.815 142.337 271.319 147.496 270.356C153.933 269.154 160.82 269.133 167.356 268.758L200.466 266.927L313.569 260.986Z"/>
	<path fill="#DFDFDF" transform="scale(0.438281 0.438477)" d="M298.719 268.503L311.016 267.866C304.555 294.062 300.482 321.633 295.437 348.188L269.081 487.469L174.577 486.5C161.34 486.342 142.424 487.863 129.853 484.935C125.54 483.547 120.868 481.782 118.105 477.993C115.072 473.833 115.003 469.521 115.029 464.599C115.073 456.227 116.43 447.652 117.418 439.338L121.941 401.15Q125.912 364.641 130.425 328.194C131.832 316.732 132.887 305.118 134.792 293.736C135.385 290.194 136.845 282.214 140.027 280.139C140.228 280.008 140.441 279.895 140.646 279.77C143.811 277.846 146.979 276.835 150.641 276.352C156.317 275.605 162.324 275.712 168.052 275.48Q181.58 274.912 195.098 274.155L298.719 268.503Z"/>
	<path fill="#1A191A" transform="scale(0.438281 0.438477)" d="M639.64 244.697C645.721 244.389 655.692 242.631 660.978 245.871C662.565 248.283 662.709 252.279 662.749 255.123C662.944 269.16 661.15 283.694 660.391 297.759L656.509 376.793L653.273 439.261C652.687 449.8 652.795 460.977 650.956 471.356C649.887 477.387 647.727 482.373 643.354 486.728C638.236 491.824 631.235 495.77 624.033 496.813C614.675 498.168 604.354 497.246 594.911 497.123Q567.401 496.594 539.887 496.391L309.502 494.389C300.539 494.412 291.289 494.852 282.389 493.813C282.926 483.711 285.73 473.156 287.623 463.22L297.729 409.221Q305.911 362.396 314.598 315.66C317.871 297.405 320.698 278.758 324.929 260.708C335.088 260.576 345.355 259.634 355.511 259.076L426.868 255.011L639.64 244.697Z"/>
	<path fill="#DFDFDF" transform="scale(0.438281 0.438477)" d="M639.776 251.587C645.219 251.128 650.864 251.247 656.334 251.092C652.744 301.807 650.742 352.733 648.227 403.519L646.017 446.598C645.568 455.015 645.681 464.037 644.013 472.288C643.221 476.209 640.773 479.45 637.964 482.21C633.998 486.108 628.973 489.204 623.386 489.92C612.898 491.264 601.368 490.305 590.77 490.282Q556.092 490.258 521.418 489.77L289.536 487.55C292.463 472.988 294.847 458.343 297.623 443.754Q306.056 401.108 313.841 358.34Q321.259 312.578 330.594 267.168L511.205 257.895C503.323 263.478 494.595 268.301 486.368 273.391L433.124 306.145C425.253 311.011 412.584 317.159 406.531 323.935C406.767 325.38 406.688 325.781 407.732 326.863C410.279 327.368 412.459 326.574 414.743 325.492C425.242 320.52 435.568 313.046 445.496 306.921C463.246 295.971 481.143 285.234 498.786 274.123C506.965 268.973 515.991 261.903 524.839 258.284C531.303 255.64 627.612 252.191 639.776 251.587Z"/>
	<path transform="scale(0.438281 0.438477)" d="M370.673 430.903C371.221 430.992 371.956 431.071 372.473 431.319C375.191 432.624 377.633 438.848 378.971 441.485C380.713 438.079 382.157 434.431 385.379 432.166C386.308 431.513 386.284 431.508 387.376 431.685C387.427 431.89 387.504 432.091 387.529 432.302C387.968 435.893 384.255 440.661 382.43 443.656C380.223 447.259 381.675 452.755 380.532 456.879C379.324 457.154 378.992 457.005 377.784 456.65C375.856 454.108 376.68 449.691 376.791 446.642C374.197 442.232 370.727 437.309 369.446 432.362L370.673 430.903Z"/>
	<path transform="scale(0.438281 0.438477)" d="M597.208 431.301C598.48 431.236 599.847 431.065 601.073 431.481C604.175 432.532 606.554 439.14 607.98 441.944C609.978 437.813 611.536 433.427 615.704 431.028L616.429 431.349C616.725 435.725 614.366 439.461 612.468 443.249C609.721 447.571 611.949 453.043 609.067 456.615C607.721 457.066 607.575 457.123 606.215 456.759C604.841 453.396 606.237 449.383 605.184 445.973C603.728 441.258 599.464 435.856 597.208 431.301Z"/>
	<path transform="scale(0.438281 0.438477)" d="M624.942 431.401C627.653 431.309 630.342 431.41 632.79 432.658C633.745 434.282 633.526 434.345 633.141 436.1C630.446 437.176 627.072 436.276 624.069 437.264C623.285 439.773 632.877 443.489 634.388 448.306C634.914 449.985 634.79 451.779 633.939 453.332C632.493 455.968 629.579 456.837 626.883 457.595C625.131 457.534 622.873 457.402 621.184 456.847C620.085 456.487 619.223 455.508 618.736 454.49C618.282 453.541 618.477 453.59 618.784 452.677C621.667 451.463 625.137 454.045 628.168 452.891C629.304 452.459 629.301 452.124 629.688 451.074C628.941 445.519 621.262 445.204 618.589 440.327C618.044 439.333 617.923 438.187 618.3 437.121C619.224 434.515 622.58 432.441 624.942 431.401Z"/>
	<path transform="scale(0.438281 0.438477)" d="M306.639 431.475C308.096 431.435 308.972 431.439 310.36 431.985C311.179 433.272 311.316 433.919 311.264 435.435L311.087 441.399L321.088 441.387C321.024 439.097 320.731 436.356 321.005 434.098C321.176 432.687 322.082 432.254 323.158 431.519C323.855 431.621 324.299 431.463 324.698 432.136C326.38 434.968 325.525 453.584 325.034 457.44C323.774 457.275 322.976 457.128 321.833 456.516C320.339 453.189 321.002 449.225 321.104 445.639L311.143 445.586C311.254 448.528 312.024 453.319 310.541 455.937C310 456.894 309.899 456.693 308.925 456.964L307.807 456.177C304.939 450.147 306.545 438.295 306.639 431.475Z"/>
	<path transform="scale(0.438281 0.438477)" d="M515.394 431.36C516.824 431.408 518.25 431.524 519.677 431.625C522.577 439.743 526.584 448.225 528.673 456.548C527.388 457.277 526.097 456.984 524.69 456.854C522.823 455.493 522.807 453.465 521.817 451.398L521.625 451.007L513.569 451.13C513.109 452.719 512.693 454.325 511.92 455.796C511.247 457.077 510.839 456.856 509.526 457.279L508.359 456.663C507.215 452.54 513.863 436.827 515.394 431.36Z"/>
	<path transform="scale(0.438281 0.438477)" d="M336.199 431.744C337.586 431.706 338.904 431.828 340.279 431.977C340.614 432.297 340.816 432.45 341.055 432.902C343.342 437.228 348.607 452.247 347.603 456.693L346.436 457.394C342.34 456.532 344.385 453.633 342.26 451.215C342.107 451.042 341.941 450.881 341.782 450.714L339.433 450.683C330.908 450.634 335.219 452.958 330.669 457.433C329.123 457.555 329.058 457.535 327.739 456.717C327.782 451.495 334.102 437.411 336.199 431.744Z"/>
	<path fill="#DFDFDF" transform="scale(0.438281 0.438477)" d="M338.322 438.046C339.601 440.314 340.627 443.414 340.799 446C340.851 446.789 340.249 447.092 339.741 447.652C338.475 447.43 337.522 447.28 336.383 446.646C335.622 443.662 337.242 440.852 338.322 438.046Z"/>
	<path transform="scale(0.438281 0.438477)" d="M440.814 431.393C442.318 431.366 443.356 431.39 444.782 431.991C447.677 435.673 452.862 451.674 453.272 456.311C452.179 457.126 451.86 457.077 450.48 457.191C448.643 455.806 448.096 453.286 447.162 451.186L445.781 450.664Q444.293 450.562 442.802 450.511C437.399 450.368 438.892 453.801 436.027 456.534C434.652 456.823 433.661 457.11 432.287 456.606C433.927 448.222 437.956 439.492 440.814 431.393Z"/>
	<path fill="#DFDFDF" transform="scale(0.438281 0.438477)" d="M442.753 437.442C444.358 439.609 445.592 443.775 445.83 446.45L444.934 447.427C443.434 447.342 442.187 447.391 440.903 446.5C440.194 443.503 441.797 440.347 442.753 437.442Z"/>
	<path transform="scale(0.438281 0.438477)" d="M398.207 431.044C398.432 431.178 398.665 431.298 398.881 431.445C401.982 433.572 408.179 452.376 408.722 456.253C407.774 457.082 407.002 456.808 405.784 456.814C403.523 455.296 403.627 453.202 401.921 451.357C400.842 450.19 399.088 450.495 397.596 450.405C392.676 450.521 392.911 453.953 389.814 457.015C388.406 457.353 388.475 457.32 387.199 456.619C388.803 449.191 391.709 441.039 394.778 434.094C395.714 431.975 396.169 431.828 398.207 431.044Z"/>
	<path fill="#DFDFDF" transform="scale(0.438281 0.438477)" d="M397.523 437.328C398.87 440.164 400.292 442.986 400.313 446.179L399.061 447.43C397.834 447.159 396.564 447.062 395.676 446.096C395.326 444.755 395.314 444.108 395.759 442.741L397.523 437.328Z"/>
	<path transform="scale(0.438281 0.438477)" d="M586.966 431.294C588.728 431.354 589.457 431.233 590.986 432.167C594.077 439.408 597.616 448.675 599.03 456.39C598.306 457.383 597.878 457.378 596.773 457.84C593.043 456.424 593.862 452.481 591.122 450.992C581.261 450.812 584.608 456.175 579.366 457.569C578.327 457.037 578.155 456.997 577.592 455.993Q582.408 443.693 586.966 431.294Z"/>
	<path fill="#DFDFDF" transform="scale(0.438281 0.438477)" d="M588.502 438.719C590.064 440.418 590.967 444.2 590.963 446.482C590.962 447.255 590.248 447.618 589.72 448.14C588.502 447.932 587.562 447.828 586.495 447.163C585.739 444.309 587.436 441.399 588.502 438.719Z"/>
	<path transform="scale(0.438281 0.438477)" d="M415.278 431.294C418.536 437.103 422.111 442.768 425.551 448.473Q425.479 444.421 425.45 440.369C425.423 437.722 425.625 433.621 427.575 431.631C428.55 432.221 428.273 431.855 428.719 432.965C429.799 435.65 430.516 453.274 429.362 455.705C428.662 457.179 427.302 457.169 425.853 457.606C423.274 451.576 419.042 445.748 415.475 440.258C415.562 444.995 416.656 453.869 413.406 457.552L412.798 457.153C410.884 452.86 410.376 437.439 411.508 432.981C412.77 431.508 413.419 431.659 415.278 431.294Z"/>
	<path transform="scale(0.438281 0.438477)" d="M466.244 431.961C471.031 431.856 475.043 431.446 479.372 433.891C481.342 435.004 481.844 436.108 482.425 438.149C481.88 441.758 479.941 443.45 477.163 445.509C478.959 448.605 482.1 452.532 482.309 456.108C481.01 457.355 479.965 456.977 478.207 457.007C477.117 454.602 475.285 448.76 472.954 447.499C472.036 447.002 472.111 447.197 471.217 447.493C470.004 450.472 470.927 453.682 470.306 456.809C469.074 457.272 469.022 457.139 467.758 456.703C464.315 452.063 466.157 437.747 466.244 431.961Z"/>
	<path fill="#DFDFDF" transform="scale(0.438281 0.438477)" d="M470.572 435.588C472.891 435.653 474.717 435.684 476.512 437.258C477.225 439.118 476.884 440.12 476.325 441.989C474.435 442.786 473.196 443.433 471.189 442.908C470.001 440.795 470.491 437.951 470.572 435.588Z"/>
	<path transform="scale(0.438281 0.438477)" d="M351.852 431.731C355.863 431.684 362.41 430.829 365.603 433.62C372.497 439.647 363.207 442.144 363.297 445.89C363.383 449.475 368.122 452.619 368.298 456.534C366.685 457.331 365.625 456.904 363.867 456.679C361.494 452.434 359.057 448.371 356.267 444.377C356.275 448.606 356.215 452.704 355.662 456.901L354.566 457.308L353.19 456.676C349.864 451.673 351.753 437.82 351.852 431.731Z"/>
	<path fill="#DFDFDF" transform="scale(0.438281 0.438477)" d="M357.105 435.272C357.959 435.308 358.884 435.311 359.721 435.493C361.349 435.845 361.773 436.429 362.652 437.77C362.719 439.621 362.294 440.827 361.616 442.536C360.315 442.677 359.106 442.673 357.803 442.635C356.925 441.875 356.241 441.482 355.932 440.302C355.504 438.668 356.281 436.664 357.105 435.272Z"/>
	<path transform="scale(0.438281 0.438477)" d="M574.604 431.202C575.708 431.367 576.799 431.572 577.896 431.779L578.343 432.573C576.92 439.141 575.695 452.101 570.677 456.859C569.888 456.988 569.511 457.276 568.821 456.742C565.617 454.261 564.675 444.729 563.87 440.691C562.854 444.994 561.753 453.273 558.662 456.455C557.913 457.226 557.832 456.99 556.846 456.968C553.234 453.724 552.755 446.466 551.936 441.879C550.916 438.142 549.693 435.261 551.576 431.607L553.213 431.582C556.536 436.21 556.974 443.516 557.903 449.026C559.013 444.397 560.006 436.395 563.134 432.774C563.861 431.932 563.852 432.14 564.851 432.066C568.414 435.762 568.999 444.511 569.941 449.45L574.604 431.202Z"/>
	<path transform="scale(0.438281 0.438477)" d="M533.047 431.651C538.415 431.658 542.399 431.423 546.563 435.393C548.9 437.62 550.377 440.899 550.229 444.15C550.036 448.411 547.898 451.856 544.876 454.693C539.915 457.079 536.035 457.054 530.601 457.028C530.581 451.631 529.499 436.627 531.368 432.07L533.047 431.651Z"/>
	<path fill="#DFDFDF" transform="scale(0.438281 0.438477)" d="M535.066 435.595C537.115 435.697 539.517 435.64 541.343 436.679C543.077 437.665 544.467 439.243 544.981 441.195C545.864 444.549 544.503 447.914 542.872 450.778Q542.403 451.084 541.921 451.368C540.026 452.486 538.506 452.955 536.387 452.422C533.573 449.389 534.996 439.863 535.066 435.595Z"/>
	<path transform="scale(0.438281 0.438477)" d="M493.117 431.409C494.942 431.37 496.934 431.241 498.705 431.738C501.767 432.599 504.306 434.978 505.678 437.811C507.358 441.283 507.4 445.411 506.088 449.005C504.584 453.124 502.038 455.182 498.243 456.996C496.24 457.221 493.913 457.411 491.977 456.77C489.012 455.788 486.61 453.423 485.334 450.605C483.738 447.08 483.761 442.924 485.108 439.328C486.669 435.161 489.27 433.219 493.117 431.409Z"/>
	<path fill="#DFDFDF" transform="scale(0.438281 0.438477)" d="M492.978 435.562C495.317 435.497 497.18 435.461 499.07 437.005C500.864 438.471 501.832 440.773 501.891 443.063C501.996 447.194 500.442 449.904 497.615 452.733C495.185 452.804 493.448 452.988 491.54 451.335C489.676 449.72 488.736 447.403 488.731 444.954C488.724 440.934 490.139 438.271 492.978 435.562Z"/>
	<path fill="#1A191A" transform="scale(0.438281 0.438477)" d="M511.741 291.157C512.38 291.152 513.16 291.098 513.795 291.252C515.201 291.594 515.759 292.247 516.53 293.388C516.445 293.936 516.451 294.111 516.274 294.593C515.41 296.946 512.117 299.131 510.095 300.509C502.941 305.39 495.173 309.574 487.754 314.047L449.988 337.124L415.981 357.993C409.151 362.181 402.305 366.828 395.073 370.276C393.897 369.994 393.194 369.55 392.178 368.937C391.748 368.172 391.114 367.598 391.366 366.689C391.97 364.51 394.442 362.872 396.222 361.634C409.778 352.205 427.766 342.296 442.317 333.557L511.741 291.157Z"/>
	<path fill="#DFDFDF" transform="scale(0.438281 0.438477)" d="M1279.14 742.056C1279.71 743.443 1279.92 744.465 1279.96 745.968C1280.54 767.688 1280.58 1020.02 1279.54 1022.76C1279.26 1023.49 1279.26 1023.44 1278.91 1024L135.239 1024C145.02 1020.35 156.435 1018.57 166.623 1016.12L223.871 1002.08L426.684 951.742L924.81 829.193Q1051.59 799.342 1177.82 767.216L1236.1 752.588C1250.42 749.116 1264.96 746.025 1279.14 742.056Z"/>
	<path fill="#DFDFDF" transform="scale(0.438281 0.438477)" d="M0 0L1278.91 0C1279.45 0.929851 1279.8 1.5937 1279.88 2.6914C1281.04 17.1389 1280 35.5784 1280 50.3938L1280.01 149.601L1280.01 531.076L1280 613.097C1280 618.803 1280.99 637.74 1279.69 642.254C1279.52 642.844 1279.19 643.396 1278.93 643.947C1270.18 645.314 1261.08 645.688 1252.26 646.451L1204.55 650.73C1206.88 644.272 1204.07 519.459 1203.94 504.02L1203.5 428.487C1203.38 416.74 1203.72 404.732 1202.89 393.029C1202.5 387.583 1200.98 381.973 1198.52 377.093C1197.38 374.829 1194.87 373.071 1192.72 371.802C1186.17 367.942 1157.25 355.746 1149.47 353.566C1149.28 353.511 1149.08 353.462 1148.89 353.41C1150.2 349.121 1146.6 340.422 1144.53 336.522C1140.94 329.73 1136.03 324.056 1129.4 320.1C1116.52 312.414 1094.27 303.488 1079.94 297.024L983.899 253.677L897.999 214.282C882.504 207.137 866.867 198.349 850.513 193.462C824.185 185.594 794.444 183.602 767.148 180.559C761.374 179.915 754.847 181.251 749.293 179.709C742.7 177.879 736.183 174.692 729.865 172.053L695.49 157.658C681.131 151.624 666.561 144.355 650.948 142.484C639.535 141.116 627.67 141.128 616.171 140.728Q582.97 139.589 549.75 139.318C455.282 138.503 360.169 141.682 266.57 155.262Q228.014 161.144 189.837 169.122C177.875 171.574 144.149 178.158 134.843 183.298C129.059 186.492 126.407 192.598 124.717 198.682C119.829 216.277 119.125 243.235 117.532 261.956C110.335 269.127 70.2143 311.081 67.6284 316.203C65.9443 319.538 65.9197 324.494 65.1847 328.177C60.1225 328.429 52.8456 327.961 49.1572 331.989C46.8736 334.483 45.8716 338.095 45.37 341.371C43.8327 351.412 44.9453 363.078 44.9911 373.279C45.0288 381.694 44.4198 390.468 45.0769 398.835C45.5329 404.641 47.166 411.288 51.8362 415.16C57.5255 419.876 71.5862 419.425 78.6406 418.467C82.3807 417.959 87.4722 416.643 89.8041 413.493C91.9562 410.585 93.096 406.387 93.5998 402.835C94.9768 393.125 95.0616 350.036 93.3893 340.74C92.5826 336.256 91.3978 332.93 87.3981 330.275C82.9318 327.311 77.1945 327.6 72.0753 327.745C72.7114 324.661 73.2433 321.502 74.0483 318.461C88.5867 303.679 103.981 288.394 116.915 272.199C104.798 361.96 95.2441 452.917 93.3887 543.511C92.4425 589.709 94.5797 635.917 95.9518 682.085L97.0003 718.384C97.1881 724.474 96.8196 731.286 97.9828 737.251C98.5545 740.183 99.7143 743.176 101.527 745.56C104.31 749.219 109.737 751.45 114.182 751.907C122.441 752.758 130.896 752.808 139.195 753.184L185.901 755.265Q252.424 758.464 318.98 760.823L321.836 771.855L79.3692 798.701Q39.6541 802.867 0 807.586L0 0Z"/>
</svg>
